<?xml version="1.0" encoding="UTF-8"?>
<!DOCTYPE svg PUBLIC "-//W3C//DTD SVG 1.1//EN" "http://www.w3.org/Graphics/SVG/1.1/DTD/svg11.dtd">
<!-- Creator: CorelDRAW X8 -->
<svg xmlns="http://www.w3.org/2000/svg" xml:space="preserve" width="297mm" height="210mm" version="1.1" style="shape-rendering:geometricPrecision; text-rendering:geometricPrecision; image-rendering:optimizeQuality; fill-rule:evenodd; clip-rule:evenodd"
viewBox="0 0 29700 21000"
 xmlns:xlink="http://www.w3.org/1999/xlink">
 <defs>
  <style type="text/css">
   <![CDATA[
    .fil0 {fill:url(#id0)}
    .fil2 {fill:url(#id1)}
    .fil1 {fill:url(#id2)}
    .fil25 {fill:url(#id3)}
    .fil31 {fill:url(#id4)}
    .fil21 {fill:url(#id5)}
    .fil7 {fill:url(#id6)}
    .fil12 {fill:url(#id7)}
    .fil29 {fill:url(#id8)}
    .fil17 {fill:url(#id9)}
    .fil19 {fill:url(#id10)}
    .fil16 {fill:url(#id11)}
    .fil10 {fill:url(#id12)}
    .fil15 {fill:url(#id13)}
    .fil3 {fill:url(#id14)}
    .fil23 {fill:url(#id15)}
    .fil4 {fill:url(#id16)}
    .fil32 {fill:url(#id17)}
    .fil11 {fill:url(#id18)}
    .fil20 {fill:url(#id19)}
    .fil14 {fill:url(#id20)}
    .fil24 {fill:url(#id21)}
    .fil18 {fill:url(#id22)}
    .fil9 {fill:url(#id23)}
    .fil13 {fill:url(#id24)}
    .fil22 {fill:url(#id25)}
    .fil30 {fill:url(#id26)}
    .fil8 {fill:url(#id27)}
    .fil27 {fill:url(#id28)}
    .fil6 {fill:url(#id29)}
    .fil26 {fill:url(#id30)}
    .fil28 {fill:url(#id31)}
    .fil5 {fill:url(#id32)}
   ]]>
  </style>
  <linearGradient id="id0" gradientUnits="userSpaceOnUse" x1="-97377.8" y1="8935.98" x2="-94425.9" y2="8935.98">
   <stop offset="0" style="stop-opacity:1; stop-color:#3B0066"/>
   <stop offset="0.321569" style="stop-opacity:1; stop-color:#1E4EB3"/>
   <stop offset="0.619608" style="stop-opacity:1; stop-color:#009CFF"/>
   <stop offset="0.768627" style="stop-opacity:1; stop-color:#00CEEE"/>
   <stop offset="1" style="stop-opacity:1; stop-color:#00FFDD"/>
  </linearGradient>
  <linearGradient id="id1" gradientUnits="userSpaceOnUse" xlink:href="#id0" x1="-97377.8" y1="8741.95" x2="-94425.9" y2="8741.95">
  </linearGradient>
  <linearGradient id="id2" gradientUnits="objectBoundingBox" xlink:href="#id0" x1="0%" y1="49.9943%" x2="99.9983%" y2="49.9943%">
  </linearGradient>
  <linearGradient id="id3" gradientUnits="userSpaceOnUse" x1="-84315.6" y1="21776.3" x2="-80907.5" y2="18368.3">
   <stop offset="0" style="stop-opacity:1; stop-color:#3B0066"/>
   <stop offset="0.188235" style="stop-opacity:1; stop-color:#990487"/>
   <stop offset="0.4" style="stop-opacity:1; stop-color:#F708A8"/>
   <stop offset="0.560784" style="stop-opacity:1; stop-color:#FB757D"/>
   <stop offset="1" style="stop-opacity:1; stop-color:#FFE252"/>
  </linearGradient>
  <linearGradient id="id4" gradientUnits="objectBoundingBox" xlink:href="#id0" x1="0%" y1="112.494%" x2="121.355%" y2="0.415257%">
  </linearGradient>
  <linearGradient id="id5" gradientUnits="objectBoundingBox" xlink:href="#id0" x1="0%" y1="112.494%" x2="121.355%" y2="0.415257%">
  </linearGradient>
  <linearGradient id="id6" gradientUnits="userSpaceOnUse" xlink:href="#id0" x1="-89681.7" y1="9874.65" x2="-85623.5" y2="5436.06">
  </linearGradient>
  <linearGradient id="id7" gradientUnits="userSpaceOnUse" x1="-94673.8" y1="3874.08" x2="-89290.1" y2="700.53">
   <stop offset="0" style="stop-opacity:1; stop-color:#3B0066"/>
   <stop offset="0.380392" style="stop-opacity:1; stop-color:#1E5BB3"/>
   <stop offset="0.439216" style="stop-opacity:1; stop-color:#00B7FF"/>
   <stop offset="0.670588" style="stop-opacity:1; stop-color:#805BC4"/>
   <stop offset="1" style="stop-opacity:1; stop-color:#FF0089"/>
  </linearGradient>
  <linearGradient id="id8" gradientUnits="userSpaceOnUse" xlink:href="#id3" x1="-93834" y1="23018.9" x2="-88264.4" y2="17449.3">
  </linearGradient>
  <linearGradient id="id9" gradientUnits="userSpaceOnUse" x1="-84102" y1="18114" x2="-78980.9" y2="12992.9">
   <stop offset="0" style="stop-opacity:1; stop-color:#3B0066"/>
   <stop offset="0.4" style="stop-opacity:1; stop-color:#1E4EB3"/>
   <stop offset="0.619608" style="stop-opacity:1; stop-color:#009CFF"/>
   <stop offset="0.768627" style="stop-opacity:1; stop-color:#00CEEE"/>
   <stop offset="1" style="stop-opacity:1; stop-color:#00FFDD"/>
  </linearGradient>
  <linearGradient id="id10" gradientUnits="userSpaceOnUse" xlink:href="#id3" x1="-81951.2" y1="16769.2" x2="-76381.6" y2="11199.6">
  </linearGradient>
  <linearGradient id="id11" gradientUnits="userSpaceOnUse" xlink:href="#id9" x1="-86160.3" y1="16077.4" x2="-80956.2" y2="10873.3">
  </linearGradient>
  <linearGradient id="id12" gradientUnits="userSpaceOnUse" xlink:href="#id9" x1="-99829" y1="4330.79" x2="-94624.9" y2="-873.31">
  </linearGradient>
  <linearGradient id="id13" gradientUnits="userSpaceOnUse" xlink:href="#id9" x1="-89641.1" y1="16077.4" x2="-84437.1" y2="10873.3">
  </linearGradient>
  <linearGradient id="id14" gradientUnits="userSpaceOnUse" xlink:href="#id3" x1="-95871.6" y1="10648.8" x2="-88732.2" y2="3509.42">
  </linearGradient>
  <linearGradient id="id15" gradientUnits="objectBoundingBox" x1="0%" y1="96.3899%" x2="129.558%" y2="0%">
   <stop offset="0" style="stop-opacity:1; stop-color:#3B0066"/>
   <stop offset="0.290196" style="stop-opacity:1; stop-color:#1E5BB3"/>
   <stop offset="0.388235" style="stop-opacity:1; stop-color:#00B7FF"/>
   <stop offset="0.611765" style="stop-opacity:1; stop-color:#805BC4"/>
   <stop offset="1" style="stop-opacity:1; stop-color:#FF0089"/>
  </linearGradient>
  <linearGradient id="id16" gradientUnits="userSpaceOnUse" xlink:href="#id3" x1="-94816" y1="13001.9" x2="-87694.2" y2="5880.05">
  </linearGradient>
  <linearGradient id="id17" gradientUnits="objectBoundingBox" xlink:href="#id0" x1="0%" y1="122.971%" x2="506.48%" y2="0%">
  </linearGradient>
  <linearGradient id="id18" gradientUnits="objectBoundingBox" xlink:href="#id9" x1="0%" y1="316.288%" x2="176.887%" y2="0%">
  </linearGradient>
  <linearGradient id="id19" gradientUnits="userSpaceOnUse" xlink:href="#id3" x1="-80162.4" y1="18578.7" x2="-74649.1" y2="13065.4">
  </linearGradient>
  <linearGradient id="id20" gradientUnits="objectBoundingBox" xlink:href="#id0" x1="0%" y1="122.971%" x2="506.48%" y2="0%">
  </linearGradient>
  <linearGradient id="id21" gradientUnits="objectBoundingBox" xlink:href="#id15" x1="0%" y1="95.6095%" x2="656.989%" y2="0%">
  </linearGradient>
  <linearGradient id="id22" gradientUnits="userSpaceOnUse" xlink:href="#id3" x1="-82792.3" y1="15679.5" x2="-77332.8" y2="10220">
  </linearGradient>
  <linearGradient id="id23" gradientUnits="userSpaceOnUse" xlink:href="#id0" x1="-83723.5" y1="9231.09" x2="-80838" y2="6345.63">
  </linearGradient>
  <linearGradient id="id24" gradientUnits="objectBoundingBox" xlink:href="#id0" x1="0%" y1="112.494%" x2="121.355%" y2="0.415257%">
  </linearGradient>
  <linearGradient id="id25" gradientUnits="userSpaceOnUse" xlink:href="#id0" x1="-91682.1" y1="15212.5" x2="-88796.6" y2="12327">
  </linearGradient>
  <linearGradient id="id26" gradientUnits="userSpaceOnUse" xlink:href="#id3" x1="-92045.2" y1="24828.4" x2="-86531.9" y2="19315.1">
  </linearGradient>
  <linearGradient id="id27" gradientUnits="userSpaceOnUse" xlink:href="#id0" x1="-83711.5" y1="9219.08" x2="-80858.3" y2="6365.91">
  </linearGradient>
  <linearGradient id="id28" gradientUnits="userSpaceOnUse" xlink:href="#id7" x1="-82758.6" y1="22803" x2="-77176.6" y2="17221">
  </linearGradient>
  <linearGradient id="id29" gradientUnits="userSpaceOnUse" xlink:href="#id0" x1="-89711.5" y1="9847.36" x2="-85653.4" y2="5408.77">
  </linearGradient>
  <linearGradient id="id30" gradientUnits="userSpaceOnUse" xlink:href="#id7" x1="-80599.3" y1="24779" x2="-74999.5" y2="19179.1">
  </linearGradient>
  <linearGradient id="id31" gradientUnits="userSpaceOnUse" xlink:href="#id3" x1="-94675.1" y1="21929.2" x2="-89215.6" y2="16469.7">
  </linearGradient>
  <linearGradient id="id32" gradientUnits="userSpaceOnUse" xlink:href="#id0" x1="-88717.6" y1="10756.1" x2="-84659.5" y2="6317.52">
  </linearGradient>
 </defs>
 <g id="Capa_x0020_1">
  <metadata id="CorelCorpID_0Corel-Layer"/>
  <path class="fil0" d="M-96187 7137l-153 0 0 2937 -1038 0 0 661 2952 0 0 -661 -1038 0 0 -2214c0,-399 -324,-723 -723,-723z"/>
  <path class="fil1" d="M-97378 6237l2292 0c365,0 660,-295 660,-660l0 0 -2952 0 0 660z"/>
  <path class="fil2" d="M-96187 6749l-153 0 0 3325 -1038 0 0 661 2952 0 0 -661 -1038 0 0 -2602c0,-399 -324,-723 -723,-723z"/>
  <path class="fil1" d="M-97378 6237l2292 0c365,0 660,-295 660,-660l0 0 -2952 0 0 660z"/>
  <path class="fil3" d="M-92711 5558l-899 0 0 5185 172 0c401,0 727,-325 727,-726l0 -4459z"/>
  <path class="fil4" d="M-91887 8154l1704 2589 938 0 0 -5185 -172 0c-401,0 -727,326 -727,727l0 3146 -1743 -2670 0 1393z"/>
  <path class="fil5" d="M-88486 10723l890 0 0 -695c0,-397 -322,-719 -719,-719l-171 0 0 1414z"/>
  <polygon class="fil6" points="-87596,5593 -88486,5593 -88486,8494 -85810,8494 -85810,7852 -87596,7852 "/>
  <path class="fil7" d="M-86109 6264l742 0 0 -671 -1414 0c0,371 301,671 672,671z"/>
  <path class="fil8" d="M-81398 5945c-377,-216 -804,-325 -1268,-325 -464,0 -891,109 -1268,325 -377,215 -678,520 -895,906 -158,279 -260,591 -303,929l354 0c290,0 547,-179 661,-446 14,-32 29,-64 44,-95 136,-269 327,-478 569,-622 240,-143 522,-216 838,-216 315,0 597,73 838,216 242,144 433,353 569,622 134,266 202,579 202,931 0,353 -68,666 -202,932 -136,269 -327,478 -569,622 -13,8 -26,15 -39,23 -228,125 -368,364 -368,623l0 325c299,-47 580,-145 837,-292 377,-215 678,-521 895,-909 218,-389 329,-835 329,-1324 0,-488 -111,-933 -329,-1319 -217,-386 -518,-691 -895,-906z"/>
  <path class="fil9" d="M-81384 5920c-381,-218 -813,-329 -1282,-329 -470,0 -901,111 -1283,329 -380,217 -685,525 -905,916 -159,283 -262,598 -306,940l358 0c294,0 553,-181 668,-451 14,-33 29,-65 45,-97 137,-271 331,-483 575,-628 243,-146 529,-219 848,-219 319,0 604,73 848,219 244,145 437,356 574,628 136,269 205,586 205,943 0,356 -69,673 -205,942 -137,272 -330,483 -574,629 -14,7 -27,15 -41,23 -229,126 -372,368 -372,630l0 329c303,-48 587,-147 847,-295 381,-218 686,-527 906,-920 220,-394 332,-844 332,-1338 0,-495 -112,-944 -332,-1335 -220,-390 -525,-699 -906,-916z"/>
  <path class="fil10" d="M-97395 3508l172 0c399,0 722,-324 722,-723l0 -2970 -894 0 0 3693z"/>
  <path class="fil11" d="M-95357 4328l-2038 0 0 645 2683 0c0,-357 -289,-645 -645,-645z"/>
  <path class="fil12" d="M-92559 -183l-969 2601 383 0c307,0 581,-195 682,-485l456 -1306 913 2618 -2742 0 -644 1730c572,0 1082,-361 1272,-901l65 -182 3207 0 -1512 -4075 -1111 0z"/>
  <path class="fil13" d="M-94838 14571c402,-86 712,-259 922,-515 210,-254 317,-576 317,-956 0,-467 -155,-847 -460,-1131 -307,-285 -764,-429 -1358,-429l-1945 0 0 5c0,399 324,722 723,722l1132 0c334,0 586,81 750,240 165,159 248,381 248,661 0,477 -234,776 -678,864 -80,16 -167,25 -261,27 -19,1 -39,1 -59,1l-140 0 0 927 1026 1710 976 0 -1311 -2100 118 -26z"/>
  <path class="fil14" d="M-97362 16697l895 0 0 -1915c0,-399 -324,-723 -723,-723l-172 0 0 2638z"/>
  <path class="fil13" d="M-94838 14571c402,-86 712,-259 922,-515 210,-254 317,-576 317,-956 0,-467 -155,-847 -460,-1131 -307,-285 -764,-429 -1358,-429l-1945 0 0 5c0,399 324,722 723,722l1132 0c334,0 586,81 750,240 165,159 248,381 248,661 0,477 -234,776 -678,864 -80,16 -167,25 -261,27 -19,1 -39,1 -59,1l-140 0 0 927 1026 1710 976 0 -1311 -2100 118 -26z"/>
  <path class="fil14" d="M-97362 16697l895 0 0 -1915c0,-399 -324,-723 -723,-723l-172 0 0 2638z"/>
  <path class="fil15" d="M-87207 15254l172 0c399,0 722,-323 722,-722l0 -2971 -894 0 0 3693z"/>
  <path class="fil11" d="M-85169 16074l-2038 0 0 645 2683 0c0,-356 -289,-645 -645,-645z"/>
  <path class="fil16" d="M-83726 15254l171 0c399,0 723,-323 723,-722l0 -2971 -894 0 0 3693z"/>
  <path class="fil17" d="M-81688 16074l-2038 0 0 645 2683 0c0,-356 -289,-645 -645,-645z"/>
  <polygon class="fil18" points="-80513,12236 -77510,12236 -77510,11561 -80513,11561 "/>
  <path class="fil19" d="M-77736 14428l0 -644 -1884 0 0 -8c0,-399 -323,-722 -721,-722l-172 0 0 3658 895 0 -2 -2284 1884 0z"/>
  <path class="fil20" d="M-77510 16030l-607 0c-376,0 -682,305 -682,682l1289 0 0 -682z"/>
  <path class="fil21" d="M-74557 14609c402,-87 712,-260 922,-515 210,-255 317,-576 317,-957 0,-466 -155,-847 -460,-1130 -307,-285 -763,-430 -1357,-430l-1945 0 0 5c0,399 323,723 722,723l1133 0c334,0 586,80 749,239 165,159 249,382 249,661 0,478 -235,777 -679,865 -79,15 -167,24 -261,27 -18,1 -38,1 -58,1l-141 0 0 926 1026 1711 976 0 -1311 -2101 118 -25z"/>
  <path class="fil14" d="M-77080 16735l894 0 0 -1916c0,-399 -323,-722 -722,-722l-172 0 0 2638z"/>
  <path class="fil21" d="M-74557 14609c402,-87 712,-260 922,-515 210,-255 317,-576 317,-957 0,-466 -155,-847 -460,-1130 -307,-285 -763,-430 -1357,-430l-1945 0 0 5c0,399 323,723 722,723l1133 0c334,0 586,80 749,239 165,159 249,382 249,661 0,478 -235,777 -679,865 -79,15 -167,24 -261,27 -18,1 -38,1 -58,1l-141 0 0 926 1026 1711 976 0 -1311 -2101 118 -25z"/>
  <path class="fil14" d="M-77080 16735l894 0 0 -1916c0,-399 -323,-722 -722,-722l-172 0 0 2638z"/>
  <path class="fil22" d="M-89342 11901c-382,-218 -813,-328 -1283,-328 -469,0 -901,110 -1282,328 -381,218 -686,526 -906,916 -159,283 -262,599 -306,940l358 0c294,0 553,-180 669,-451 14,-33 29,-65 45,-97 137,-271 330,-483 574,-628 244,-145 529,-219 848,-219 319,0 604,74 848,219 244,145 438,357 575,629 136,269 204,586 204,942 0,356 -68,673 -204,942 -137,272 -331,483 -575,629 -13,8 -27,15 -40,23 -230,127 -372,368 -372,631l0 328c302,-47 587,-146 847,-295 380,-217 685,-527 905,-920 220,-393 332,-844 332,-1338 0,-495 -112,-944 -332,-1335 -220,-390 -524,-698 -905,-916z"/>
  <path class="fil23" d="M-92860 20375c0,511 -108,967 -322,1355 -212,387 -524,691 -928,907 -405,215 -895,325 -1459,325l-89 0 0 -133c0,-344 245,-633 581,-708 326,-73 597,-212 810,-416 330,-318 498,-766 498,-1330 0,-569 -168,-1018 -498,-1337 -329,-316 -798,-475 -1391,-475l-1719 0 0 -759 1808 0c563,0 1054,108 1460,318 403,210 715,510 927,895 215,385 322,843 322,1358z"/>
  <path class="fil24" d="M-97377 22962l894 0 0 -2857c0,-399 -323,-722 -722,-722l-172 0 0 3579z"/>
  <path class="fil23" d="M-92860 20375c0,511 -108,967 -322,1355 -212,387 -524,691 -928,907 -405,215 -895,325 -1459,325l-89 0 0 -133c0,-344 245,-633 581,-708 326,-73 597,-212 810,-416 330,-318 498,-766 498,-1330 0,-569 -168,-1018 -498,-1337 -329,-316 -798,-475 -1391,-475l-1719 0 0 -759 1808 0c563,0 1054,108 1460,318 403,210 715,510 927,895 215,385 322,843 322,1358z"/>
  <path class="fil24" d="M-97377 22962l894 0 0 -2857c0,-399 -323,-722 -722,-722l-172 0 0 3579z"/>
  <path class="fil25" d="M-81785 20852c172,143 260,349 260,611 0,262 -87,465 -257,605 -166,135 -402,204 -703,204 -352,0 -638,286 -638,638l0 59 849 0c545,0 964,-124 1246,-368 277,-241 418,-575 418,-995 0,-300 -91,-564 -270,-786 -183,-225 -420,-365 -724,-427l-381 -77 378 -89c263,-61 477,-191 637,-386 159,-194 240,-449 240,-760 0,-404 -132,-708 -402,-929 -273,-222 -672,-335 -1187,-335l-2154 0 0 1412 172 0c398,0 721,-323 721,-722l0 -8 1028 0c301,0 531,68 682,202 154,137 232,331 232,576 0,246 -80,439 -237,574 -155,131 -377,197 -662,197l-1936 0 0 592 1981 0c300,0 537,71 707,212z"/>
  <path class="fil26" d="M-78952 22991l903 0 0 -1046 -179 0c-400,0 -724,324 -724,723l0 323z"/>
  <path class="fil27" d="M-79679 17828l-1030 0 1723 3296 533 0c269,0 517,-150 641,-389l1513 -2907 -1007 0 -1187 2444 -1186 -2444z"/>
  <polygon class="fil28" points="-92395,18485 -89393,18485 -89393,17811 -92395,17811 "/>
  <path class="fil29" d="M-89619 20678l0 -644 -1884 0 0 -8c0,-399 -323,-722 -721,-722l-171 0 0 3657 895 0 -3 -2283 1884 0z"/>
  <path class="fil30" d="M-89393 22280l-607 0c-376,0 -681,305 -681,681l1288 0 0 -681z"/>
  <path class="fil31" d="M-86439 20859c401,-87 711,-260 921,-515 211,-255 317,-577 317,-957 0,-467 -154,-847 -460,-1131 -306,-285 -763,-429 -1357,-429l-1945 0 0 5c0,399 323,723 723,723l1132 0c334,0 586,80 749,239 165,159 249,381 249,661 0,477 -235,776 -679,864 -79,16 -167,25 -261,28 -18,0 -38,0 -58,0l-141 0 0 927 1026 1710 976 0 -1311 -2100 119 -25z"/>
  <path class="fil32" d="M-88963 22984l894 0 0 -1915c0,-399 -323,-722 -722,-722l-172 0 0 2637z"/>
  <path class="fil31" d="M-86439 20859c401,-87 711,-260 921,-515 211,-255 317,-577 317,-957 0,-467 -154,-847 -460,-1131 -306,-285 -763,-429 -1357,-429l-1945 0 0 5c0,399 323,723 723,723l1132 0c334,0 586,80 749,239 165,159 249,381 249,661 0,477 -235,776 -679,864 -79,16 -167,25 -261,28 -18,0 -38,0 -58,0l-141 0 0 927 1026 1710 976 0 -1311 -2100 119 -25z"/>
  <path class="fil32" d="M-88963 22984l894 0 0 -1915c0,-399 -323,-722 -722,-722l-172 0 0 2637z"/>
 </g>
</svg>
